<svg width="48" height="48" viewBox="0 0 48 48" fill="none" xmlns="http://www.w3.org/2000/svg">
<path fill-rule="evenodd" clip-rule="evenodd" d="M41.1928 34.7808C44.7942 34.8314 47.7951 32.0142 47.9972 28.393C48.0493 26.6041 47.3772 24.8707 46.1351 23.5907C44.893 22.3108 43.1876 21.5942 41.4104 21.6054C40.824 21.6029 40.2401 21.6832 39.6757 21.8439C39.036 18.8467 37.1788 16.2565 34.5548 14.7019C32.8921 13.704 30.9919 13.1783 29.0563 13.1807C25.8877 13.1807 24.3835 14.2314 24.3835 14.2314C23.8152 14.4786 23.4566 15.0524 23.4809 15.6752V33.4078C23.4844 34.1622 24.0889 34.7738 24.838 34.7808H41.1928ZM21.439 34.2909C22.2903 28.2963 21.9319 22.8108 21.439 16.7968C21.4613 16.5929 21.3658 16.394 21.1932 16.285C21.0206 16.1759 20.8012 16.1759 20.6286 16.285C20.4559 16.394 20.3605 16.5929 20.3828 16.7968C19.9347 22.7593 19.5891 28.3478 20.3828 34.2909C20.4125 34.5621 20.64 34.7673 20.9109 34.7673C21.1818 34.7673 21.4093 34.5621 21.439 34.2909ZM18.1296 34.2973C18.088 34.5711 17.8541 34.7733 17.5791 34.7733C17.304 34.7733 17.0702 34.5711 17.0286 34.2973C16.4365 29.1686 16.4365 23.9881 17.0286 18.8595C17.0591 18.5746 17.2978 18.3587 17.5823 18.3587C17.8668 18.3587 18.1055 18.5746 18.136 18.8595C18.7932 23.9843 18.791 29.1731 18.1296 34.2973ZM14.8074 34.2844C15.5947 28.786 15.3515 23.8485 14.8138 18.3373C14.7839 18.0627 14.5536 17.8548 14.2793 17.8548C14.005 17.8548 13.7747 18.0627 13.7448 18.3373C13.2391 23.7776 12.9831 28.8569 13.7448 34.2844C13.7448 34.5798 13.9827 34.8194 14.2761 34.8194C14.5695 34.8194 14.8074 34.5798 14.8074 34.2844ZM11.4916 34.3029C11.4616 34.5809 11.2284 34.7915 10.9507 34.7915C10.673 34.7915 10.4399 34.5809 10.4098 34.3029C9.79852 29.5183 9.79852 24.6745 10.4098 19.8899C10.4098 19.5838 10.6563 19.3356 10.9603 19.3356C11.2644 19.3356 11.5108 19.5838 11.5108 19.8899C12.1606 24.6724 12.1541 29.5222 11.4916 34.3029ZM8.14386 34.3424C8.63675 30.5328 9.01442 27.2326 8.17587 23.4939C8.17587 23.1913 7.93227 22.946 7.63178 22.946C7.33128 22.946 7.08768 23.1913 7.08768 23.4939C6.30034 27.2068 6.67161 30.5844 7.11969 34.3424C7.15963 34.596 7.37678 34.7827 7.63178 34.7827C7.88677 34.7827 8.10392 34.596 8.14386 34.3424ZM4.8665 22.9268C5.63463 26.7557 5.38499 29.998 4.84729 33.8397C4.78328 34.4069 3.81672 34.4134 3.76551 33.8397C3.27902 30.056 3.04858 26.717 3.7463 22.9268C3.77695 22.6386 4.01851 22.42 4.3064 22.42C4.59429 22.42 4.83585 22.6386 4.8665 22.9268ZM1.4931 31.9896C2.0564 29.3855 2.33164 27.3228 1.5251 24.7832C1.49446 24.4949 1.2529 24.2763 0.965007 24.2763C0.677117 24.2763 0.435555 24.4949 0.40491 24.7832C-0.235201 27.3293 -0.036767 29.4371 0.449717 31.9896C0.479212 32.2574 0.703916 32.4599 0.971408 32.4599C1.2389 32.4599 1.4636 32.2574 1.4931 31.9896Z" fill="white"/>
</svg>
